<svg width="106" height="44" viewBox="0 0 106 44" fill="none" xmlns="http://www.w3.org/2000/svg">
<path d="M0 24.221C5.30073 24.221 5.30073 34.51 10.6009 34.51C15.901 34.51 15.9007 10.243 21.2006 10.243C26.5006 10.243 26.5014 29.3372 31.8008 29.3372C37.1002 29.3372 37.1009 22.377 42.4011 22.377C47.7013 22.377 47.7005 40.0908 53.0012 40.0908C58.302 40.0908 58.3006 31.4052 63.6 31.4052C68.8994 31.4052 68.9004 32.4083 74.2004 32.4083C79.5003 32.4083 79.5001 0 84.7995 0C90.099 0 90.1003 29.3372 95.3999 29.3372C100.699 29.3372 100.7 21.3816 106 21.3816V44H0V24.221Z" fill="#C99F19"/>
</svg>
