<svg width="145" height="72" viewBox="0 0 145 72" fill="none" xmlns="http://www.w3.org/2000/svg">
<path opacity="0.70845" d="M19.1819 24.0012C19.1819 24.0012 23.8746 13.6941 31.474 18.3473C39.0735 23.0005 39.0735 48.2159 52.8141 48.2159C66.5547 48.2159 62.1959 12.5763 73.2856 12.1885C84.3752 11.8007 82.0309 48.2453 91.7165 48.2159C107.153 48.169 101.335 4 114.364 4C121.35 4 124.589 16.711 126.091 28.5026" stroke="#C99F19" stroke-linecap="round" stroke-linejoin="round"/>
<path opacity="0.546456" fill-rule="evenodd" clip-rule="evenodd" d="M19.1909 33.9648C18.0202 33.9648 22.3854 31.6266 28.1371 31.6266C37.4736 31.6266 38.2364 43.0222 49.2073 43.0222C59.113 43.0222 60.4108 9.57059 70.7426 9.57059C80.9679 9.57059 83.5672 43.0222 93.686 43.0222C104.258 43.0222 106.215 16.2354 113.424 16.2354C120.633 16.2354 127 30.3853 127 30.3853V64.9277H19.1909V33.9648Z" fill="url(#paint0_linear_2172_29761)"/>
<g filter="url(#filter0_d_2172_29761)">
<path d="M19.1819 33.7193C19.1819 33.7193 21.261 31.5418 27.1702 31.5418C38.4415 31.5418 37.7849 42.9937 49.0562 42.9937C59.2331 42.9937 60.3274 9.22235 70.9421 9.22235C81.4474 9.22235 83.4444 42.9937 93.8402 42.9937C104.701 42.9937 106.2 16.14 113.737 15.734C121.274 15.3279 126.455 28.4227 126.455 28.4227" stroke="#18A3AE" stroke-linecap="round" stroke-linejoin="round"/>
</g>
<defs>
<filter id="filter0_d_2172_29761" x="0.68185" y="0.722351" width="144.273" height="70.7713" filterUnits="userSpaceOnUse" color-interpolation-filters="sRGB">
<feFlood flood-opacity="0" result="BackgroundImageFix"/>
<feColorMatrix in="SourceAlpha" type="matrix" values="0 0 0 0 0 0 0 0 0 0 0 0 0 0 0 0 0 0 127 0" result="hardAlpha"/>
<feOffset dy="10"/>
<feGaussianBlur stdDeviation="9"/>
<feColorMatrix type="matrix" values="0 0 0 0 0.313726 0 0 0 0 0.254902 0 0 0 0 0.737255 0 0 0 1 0"/>
<feBlend mode="normal" in2="BackgroundImageFix" result="effect1_dropShadow_2172_29761"/>
<feBlend mode="normal" in="SourceGraphic" in2="effect1_dropShadow_2172_29761" result="shape"/>
</filter>
<linearGradient id="paint0_linear_2172_29761" x1="-7.74101" y1="9.44949" x2="-6.84019" y2="59.9684" gradientUnits="userSpaceOnUse">
<stop stop-color="#C5BDFE" stop-opacity="0.450803"/>
<stop offset="1" stop-color="#5041BC" stop-opacity="0.01"/>
</linearGradient>
</defs>
</svg>
