<svg width="4" height="3" viewBox="0 0 4 3" fill="none" xmlns="http://www.w3.org/2000/svg">
<path d="M1.4375 3C1.25516 3 1.08029 2.92757 0.951364 2.79864C0.822432 2.66971 0.75 2.49484 0.75 2.3125V1.28125C0.75 1.09891 0.822432 0.924045 0.951364 0.795114C1.08029 0.666183 1.25516 0.59375 1.4375 0.59375H2.8125C2.99484 0.59375 3.16971 0.666183 3.29864 0.795114C3.42757 0.924045 3.5 1.09891 3.5 1.28125V2.3125C3.5 2.49484 3.42757 2.66971 3.29864 2.79864C3.16971 2.92757 2.99484 3 2.8125 3H1.4375ZM2.8125 1.28125H1.4375V2.3125H2.8125V1.28125Z" fill="#18939B"/>
</svg>
